<?xml version="1.0" encoding="utf-8" standalone="no"?>
<!DOCTYPE svg PUBLIC "-//W3C//DTD SVG 1.1//EN"
  "http://www.w3.org/Graphics/SVG/1.1/DTD/svg11.dtd">
<svg xmlns:xlink="http://www.w3.org/1999/xlink" width="926.772187pt" height="430.518562pt" viewBox="0 0 926.772187 430.518562" xmlns="http://www.w3.org/2000/svg" version="1.1">
 <metadata>
  <rdf:RDF xmlns:dc="http://purl.org/dc/elements/1.1/" xmlns:cc="http://creativecommons.org/ns#" xmlns:rdf="http://www.w3.org/1999/02/22-rdf-syntax-ns#">
   <cc:Work>
    <dc:type rdf:resource="http://purl.org/dc/dcmitype/StillImage"/>
    <dc:date>2026-06-21T23:53:00.979450</dc:date>
    <dc:format>image/svg+xml</dc:format>
    <dc:creator>
     <cc:Agent>
      <dc:title>Matplotlib v3.10.0, https://matplotlib.org/</dc:title>
     </cc:Agent>
    </dc:creator>
   </cc:Work>
  </rdf:RDF>
 </metadata>
 <defs>
  <style type="text/css">*{stroke-linejoin: round; stroke-linecap: butt}</style>
 </defs>
 <g id="figure_1">
  <g id="patch_1">
   <path d="M 0 430.518562 
L 926.772187 430.518562 
L 926.772187 0 
L 0 0 
z
" style="fill: #ffffff"/>
  </g>
  <g id="axes_1">
   <g id="patch_2">
    <path d="M 49.26 391.912 
L 445.93 391.912 
L 445.93 73.73325 
L 49.26 73.73325 
z
" style="fill: #ffffff"/>
   </g>
   <g id="matplotlib.axis_1">
    <g id="xtick_1">
     <g id="line2d_1">
      <path d="M 49.26 391.912 
L 49.26 73.73325 
" clip-path="url(#p9673c9bfda)" style="fill: none; stroke-dasharray: 0.8,1.32; stroke-dashoffset: 0; stroke: #b0b0b0; stroke-opacity: 0.42; stroke-width: 0.8"/>
     </g>
     <g id="line2d_2">
      <defs>
       <path id="mfa02ecac4d" d="M 0 0 
L 0 3.5 
" style="stroke: #000000; stroke-width: 0.8"/>
      </defs>
      <g>
       <use xlink:href="#mfa02ecac4d" x="49.26" y="391.912" style="stroke: #000000; stroke-width: 0.8"/>
      </g>
     </g>
     <g id="text_1">
      <text style="font-size: 10px; font-family: 'Arial', sans-serif; text-anchor: middle" x="49.26" y="406.069812" transform="rotate(-0 49.26 406.069812)">0</text>
     </g>
    </g>
    <g id="xtick_2">
     <g id="line2d_3">
      <path d="M 102.149333 391.912 
L 102.149333 73.73325 
" clip-path="url(#p9673c9bfda)" style="fill: none; stroke-dasharray: 0.8,1.32; stroke-dashoffset: 0; stroke: #b0b0b0; stroke-opacity: 0.42; stroke-width: 0.8"/>
     </g>
     <g id="line2d_4">
      <g>
       <use xlink:href="#mfa02ecac4d" x="102.149333" y="391.912" style="stroke: #000000; stroke-width: 0.8"/>
      </g>
     </g>
     <g id="text_2">
      <text style="font-size: 10px; font-family: 'Arial', sans-serif; text-anchor: middle" x="102.149333" y="406.069812" transform="rotate(-0 102.149333 406.069812)">2</text>
     </g>
    </g>
    <g id="xtick_3">
     <g id="line2d_5">
      <path d="M 155.038667 391.912 
L 155.038667 73.73325 
" clip-path="url(#p9673c9bfda)" style="fill: none; stroke-dasharray: 0.8,1.32; stroke-dashoffset: 0; stroke: #b0b0b0; stroke-opacity: 0.42; stroke-width: 0.8"/>
     </g>
     <g id="line2d_6">
      <g>
       <use xlink:href="#mfa02ecac4d" x="155.038667" y="391.912" style="stroke: #000000; stroke-width: 0.8"/>
      </g>
     </g>
     <g id="text_3">
      <text style="font-size: 10px; font-family: 'Arial', sans-serif; text-anchor: middle" x="155.038667" y="406.069812" transform="rotate(-0 155.038667 406.069812)">4</text>
     </g>
    </g>
    <g id="xtick_4">
     <g id="line2d_7">
      <path d="M 207.928 391.912 
L 207.928 73.73325 
" clip-path="url(#p9673c9bfda)" style="fill: none; stroke-dasharray: 0.8,1.32; stroke-dashoffset: 0; stroke: #b0b0b0; stroke-opacity: 0.42; stroke-width: 0.8"/>
     </g>
     <g id="line2d_8">
      <g>
       <use xlink:href="#mfa02ecac4d" x="207.928" y="391.912" style="stroke: #000000; stroke-width: 0.8"/>
      </g>
     </g>
     <g id="text_4">
      <text style="font-size: 10px; font-family: 'Arial', sans-serif; text-anchor: middle" x="207.928" y="406.069812" transform="rotate(-0 207.928 406.069812)">6</text>
     </g>
    </g>
    <g id="xtick_5">
     <g id="line2d_9">
      <path d="M 260.817333 391.912 
L 260.817333 73.73325 
" clip-path="url(#p9673c9bfda)" style="fill: none; stroke-dasharray: 0.8,1.32; stroke-dashoffset: 0; stroke: #b0b0b0; stroke-opacity: 0.42; stroke-width: 0.8"/>
     </g>
     <g id="line2d_10">
      <g>
       <use xlink:href="#mfa02ecac4d" x="260.817333" y="391.912" style="stroke: #000000; stroke-width: 0.8"/>
      </g>
     </g>
     <g id="text_5">
      <text style="font-size: 10px; font-family: 'Arial', sans-serif; text-anchor: middle" x="260.817333" y="406.069812" transform="rotate(-0 260.817333 406.069812)">8</text>
     </g>
    </g>
    <g id="xtick_6">
     <g id="line2d_11">
      <path d="M 313.706667 391.912 
L 313.706667 73.73325 
" clip-path="url(#p9673c9bfda)" style="fill: none; stroke-dasharray: 0.8,1.32; stroke-dashoffset: 0; stroke: #b0b0b0; stroke-opacity: 0.42; stroke-width: 0.8"/>
     </g>
     <g id="line2d_12">
      <g>
       <use xlink:href="#mfa02ecac4d" x="313.706667" y="391.912" style="stroke: #000000; stroke-width: 0.8"/>
      </g>
     </g>
     <g id="text_6">
      <text style="font-size: 10px; font-family: 'Arial', sans-serif; text-anchor: middle" x="313.706667" y="406.069812" transform="rotate(-0 313.706667 406.069812)">10</text>
     </g>
    </g>
    <g id="xtick_7">
     <g id="line2d_13">
      <path d="M 366.596 391.912 
L 366.596 73.73325 
" clip-path="url(#p9673c9bfda)" style="fill: none; stroke-dasharray: 0.8,1.32; stroke-dashoffset: 0; stroke: #b0b0b0; stroke-opacity: 0.42; stroke-width: 0.8"/>
     </g>
     <g id="line2d_14">
      <g>
       <use xlink:href="#mfa02ecac4d" x="366.596" y="391.912" style="stroke: #000000; stroke-width: 0.8"/>
      </g>
     </g>
     <g id="text_7">
      <text style="font-size: 10px; font-family: 'Arial', sans-serif; text-anchor: middle" x="366.596" y="406.069812" transform="rotate(-0 366.596 406.069812)">12</text>
     </g>
    </g>
    <g id="xtick_8">
     <g id="line2d_15">
      <path d="M 419.485333 391.912 
L 419.485333 73.73325 
" clip-path="url(#p9673c9bfda)" style="fill: none; stroke-dasharray: 0.8,1.32; stroke-dashoffset: 0; stroke: #b0b0b0; stroke-opacity: 0.42; stroke-width: 0.8"/>
     </g>
     <g id="line2d_16">
      <g>
       <use xlink:href="#mfa02ecac4d" x="419.485333" y="391.912" style="stroke: #000000; stroke-width: 0.8"/>
      </g>
     </g>
     <g id="text_8">
      <text style="font-size: 10px; font-family: 'Arial', sans-serif; text-anchor: middle" x="419.485333" y="406.069812" transform="rotate(-0 419.485333 406.069812)">14</text>
     </g>
    </g>
    <g id="text_9">
     <text style="font-weight: 700; font-size: 12px; font-family: 'Arial', sans-serif; text-anchor: middle" x="247.595" y="420.792937" transform="rotate(-0 247.595 420.792937)">Time (d)</text>
    </g>
   </g>
   <g id="matplotlib.axis_2">
    <g id="ytick_1">
     <g id="line2d_17">
      <path d="M 49.26 391.912 
L 445.93 391.912 
" clip-path="url(#p9673c9bfda)" style="fill: none; stroke-dasharray: 0.8,1.32; stroke-dashoffset: 0; stroke: #b0b0b0; stroke-opacity: 0.42; stroke-width: 0.8"/>
     </g>
     <g id="line2d_18">
      <defs>
       <path id="m3ead25d9ed" d="M 0 0 
L -3.5 0 
" style="stroke: #000000; stroke-width: 0.8"/>
      </defs>
      <g>
       <use xlink:href="#m3ead25d9ed" x="49.26" y="391.912" style="stroke: #000000; stroke-width: 0.8"/>
      </g>
     </g>
     <g id="text_10">
      <text style="font-size: 10px; font-family: 'Arial', sans-serif; text-anchor: end" x="42.26" y="395.490906" transform="rotate(-0 42.26 395.490906)">0.0</text>
     </g>
    </g>
    <g id="ytick_2">
     <g id="line2d_19">
      <path d="M 49.26 334.061318 
L 445.93 334.061318 
" clip-path="url(#p9673c9bfda)" style="fill: none; stroke-dasharray: 0.8,1.32; stroke-dashoffset: 0; stroke: #b0b0b0; stroke-opacity: 0.42; stroke-width: 0.8"/>
     </g>
     <g id="line2d_20">
      <g>
       <use xlink:href="#m3ead25d9ed" x="49.26" y="334.061318" style="stroke: #000000; stroke-width: 0.8"/>
      </g>
     </g>
     <g id="text_11">
      <text style="font-size: 10px; font-family: 'Arial', sans-serif; text-anchor: end" x="42.26" y="337.640224" transform="rotate(-0 42.26 337.640224)">0.1</text>
     </g>
    </g>
    <g id="ytick_3">
     <g id="line2d_21">
      <path d="M 49.26 276.210636 
L 445.93 276.210636 
" clip-path="url(#p9673c9bfda)" style="fill: none; stroke-dasharray: 0.8,1.32; stroke-dashoffset: 0; stroke: #b0b0b0; stroke-opacity: 0.42; stroke-width: 0.8"/>
     </g>
     <g id="line2d_22">
      <g>
       <use xlink:href="#m3ead25d9ed" x="49.26" y="276.210636" style="stroke: #000000; stroke-width: 0.8"/>
      </g>
     </g>
     <g id="text_12">
      <text style="font-size: 10px; font-family: 'Arial', sans-serif; text-anchor: end" x="42.26" y="279.789543" transform="rotate(-0 42.26 279.789543)">0.2</text>
     </g>
    </g>
    <g id="ytick_4">
     <g id="line2d_23">
      <path d="M 49.26 218.359955 
L 445.93 218.359955 
" clip-path="url(#p9673c9bfda)" style="fill: none; stroke-dasharray: 0.8,1.32; stroke-dashoffset: 0; stroke: #b0b0b0; stroke-opacity: 0.42; stroke-width: 0.8"/>
     </g>
     <g id="line2d_24">
      <g>
       <use xlink:href="#m3ead25d9ed" x="49.26" y="218.359955" style="stroke: #000000; stroke-width: 0.8"/>
      </g>
     </g>
     <g id="text_13">
      <text style="font-size: 10px; font-family: 'Arial', sans-serif; text-anchor: end" x="42.26" y="221.938861" transform="rotate(-0 42.26 221.938861)">0.3</text>
     </g>
    </g>
    <g id="ytick_5">
     <g id="line2d_25">
      <path d="M 49.26 160.509273 
L 445.93 160.509273 
" clip-path="url(#p9673c9bfda)" style="fill: none; stroke-dasharray: 0.8,1.32; stroke-dashoffset: 0; stroke: #b0b0b0; stroke-opacity: 0.42; stroke-width: 0.8"/>
     </g>
     <g id="line2d_26">
      <g>
       <use xlink:href="#m3ead25d9ed" x="49.26" y="160.509273" style="stroke: #000000; stroke-width: 0.8"/>
      </g>
     </g>
     <g id="text_14">
      <text style="font-size: 10px; font-family: 'Arial', sans-serif; text-anchor: end" x="42.26" y="164.088179" transform="rotate(-0 42.26 164.088179)">0.4</text>
     </g>
    </g>
    <g id="ytick_6">
     <g id="line2d_27">
      <path d="M 49.26 102.658591 
L 445.93 102.658591 
" clip-path="url(#p9673c9bfda)" style="fill: none; stroke-dasharray: 0.8,1.32; stroke-dashoffset: 0; stroke: #b0b0b0; stroke-opacity: 0.42; stroke-width: 0.8"/>
     </g>
     <g id="line2d_28">
      <g>
       <use xlink:href="#m3ead25d9ed" x="49.26" y="102.658591" style="stroke: #000000; stroke-width: 0.8"/>
      </g>
     </g>
     <g id="text_15">
      <text style="font-size: 10px; font-family: 'Arial', sans-serif; text-anchor: end" x="42.26" y="106.237497" transform="rotate(-0 42.26 106.237497)">0.5</text>
     </g>
    </g>
    <g id="text_16">
     <!-- Biomass (gDW L$^{-1}$) -->
     <g transform="translate(21.72 287.722625) rotate(-90)">
      <text>
       <tspan x="0" y="-0.59925" style="font-weight: 700; font-size: 12px; font-family: 'Arial'">B</tspan>
       <tspan x="8.666016" y="-0.59925" style="font-weight: 700; font-size: 12px; font-family: 'Arial'">i</tspan>
       <tspan x="12" y="-0.59925" style="font-weight: 700; font-size: 12px; font-family: 'Arial'">o</tspan>
       <tspan x="19.330078" y="-0.59925" style="font-weight: 700; font-size: 12px; font-family: 'Arial'">m</tspan>
       <tspan x="30" y="-0.59925" style="font-weight: 700; font-size: 12px; font-family: 'Arial'">a</tspan>
       <tspan x="36.673828" y="-0.59925" style="font-weight: 700; font-size: 12px; font-family: 'Arial'">s</tspan>
       <tspan x="43.347656" y="-0.59925" style="font-weight: 700; font-size: 12px; font-family: 'Arial'">s</tspan>
       <tspan x="50.021484" y="-0.59925" style="font-weight: 700; font-size: 12px; font-family: 'Arial'"> </tspan>
       <tspan x="53.355469" y="-0.59925" style="font-weight: 700; font-size: 12px; font-family: 'Arial'">(</tspan>
       <tspan x="57.351562" y="-0.59925" style="font-weight: 700; font-size: 12px; font-family: 'Arial'">g</tspan>
       <tspan x="64.681641" y="-0.59925" style="font-weight: 700; font-size: 12px; font-family: 'Arial'">D</tspan>
       <tspan x="73.347656" y="-0.59925" style="font-weight: 700; font-size: 12px; font-family: 'Arial'">W</tspan>
       <tspan x="84.673828" y="-0.59925" style="font-weight: 700; font-size: 12px; font-family: 'Arial'"> </tspan>
       <tspan x="88.007812" y="-0.59925" style="font-weight: 700; font-size: 12px; font-family: 'Arial'">L</tspan>
       <tspan x="105.721495" y="-0.59925" style="font-weight: 700; font-size: 12px; font-family: 'Arial'">)</tspan>
       <tspan x="95.546972" y="-8.9625" style="font-size: 8.4px; font-family: 'Arial'">−</tspan>
       <tspan x="100.452441" y="-8.9625" style="font-size: 8.4px; font-family: 'Arial'">1</tspan>
      </text>
     </g>
    </g>
   </g>
   <g id="line2d_29">
    <path d="M 49.26 380.341864 
L 59.17675 378.671364 
L 69.0935 376.759846 
L 77.908389 374.830422 
L 86.723278 372.655537 
L 94.436306 370.526753 
L 102.149333 368.162908 
L 109.862361 365.538116 
L 116.473528 363.058919 
L 123.084694 360.347055 
L 129.695861 357.380775 
L 136.307028 354.136318 
L 141.816333 351.201452 
L 147.325639 348.039147 
L 152.834944 344.63189 
L 158.34425 340.960841 
L 163.853556 337.005744 
L 169.362861 332.74482 
L 174.872167 328.15467 
L 180.381472 323.210161 
L 184.788917 318.981354 
L 189.196361 314.493823 
L 193.603806 309.732021 
L 198.01125 304.679525 
L 202.418694 299.319007 
L 206.826139 293.632195 
L 211.233583 287.599858 
L 215.641028 281.201785 
L 220.048472 274.416787 
L 224.455917 267.222719 
L 228.863361 259.596533 
L 233.270806 251.51439 
L 237.67825 242.951846 
L 242.085694 233.884177 
L 246.493139 224.286926 
L 250.900583 214.136845 
L 255.308028 203.413565 
L 259.715472 192.102716 
L 264.122917 180.202229 
L 268.530361 167.736506 
L 275.141528 148.21481 
L 279.548972 135.273923 
L 281.752694 129.478041 
L 282.854556 127.119028 
L 283.956417 125.516066 
L 285.058278 125.039911 
L 445.93 125.039911 
L 445.93 125.039911 
" clip-path="url(#p9673c9bfda)" style="fill: none; stroke: #3b7ea1; stroke-width: 2.6; stroke-linecap: square"/>
   </g>
   <g id="line2d_30">
    <path d="M 49.26 380.341864 
L 59.17675 378.671364 
L 69.0935 376.759846 
L 77.908389 374.830422 
L 86.723278 372.655537 
L 94.436306 370.526753 
L 102.149333 368.162908 
L 109.862361 365.538116 
L 116.473528 363.058919 
L 123.084694 360.347055 
L 129.695861 357.380775 
L 136.307028 354.136318 
L 141.816333 351.201452 
L 147.325639 348.039147 
L 152.834944 344.63189 
L 158.34425 340.960841 
L 163.853556 337.005744 
L 169.362861 332.74482 
L 174.872167 328.15467 
L 180.381472 323.210161 
L 184.788917 318.981354 
L 189.196361 314.493823 
L 193.603806 309.732021 
L 198.01125 304.679525 
L 202.418694 299.319007 
L 206.826139 293.632195 
L 211.233583 287.599858 
L 215.641028 281.201785 
L 220.048472 274.416787 
L 224.455917 267.222719 
L 228.863361 259.596533 
L 233.270806 251.51439 
L 237.67825 242.951846 
L 242.085694 233.884177 
L 246.493139 224.286926 
L 250.900583 214.136845 
L 255.308028 203.413565 
L 259.715472 192.102716 
L 264.122917 180.202229 
L 268.530361 167.736506 
L 275.141528 148.21481 
L 279.548972 135.273923 
L 281.752694 129.478041 
L 282.854556 127.119028 
L 283.956417 125.516066 
L 285.058278 125.039911 
L 445.93 125.039911 
L 445.93 125.039911 
" clip-path="url(#p9673c9bfda)" style="fill: none; stroke: #5aa469; stroke-width: 2.6; stroke-linecap: square"/>
   </g>
   <g id="line2d_31">
    <path d="M 49.26 380.341864 
L 59.17675 378.671364 
L 69.0935 376.759846 
L 77.908389 374.830422 
L 86.723278 372.655537 
L 94.436306 370.526753 
L 102.149333 368.162908 
L 109.862361 365.538116 
L 116.473528 363.058919 
L 123.084694 360.347055 
L 129.695861 357.380775 
L 136.307028 354.136318 
L 141.816333 351.201452 
L 147.325639 348.039147 
L 152.834944 344.63189 
L 158.34425 340.960841 
L 163.853556 337.005744 
L 169.362861 332.74482 
L 174.872167 328.15467 
L 180.381472 323.210161 
L 184.788917 318.981354 
L 189.196361 314.493823 
L 193.603806 309.732021 
L 198.01125 304.679525 
L 202.418694 299.319007 
L 206.826139 293.632195 
L 211.233583 287.599858 
L 215.641028 281.201785 
L 220.048472 274.416787 
L 224.455917 267.222719 
L 228.863361 259.596533 
L 233.270806 251.51439 
L 237.67825 242.951846 
L 242.085694 233.884177 
L 246.493139 224.286926 
L 250.900583 214.136845 
L 255.308028 203.413565 
L 259.715472 192.102716 
L 264.122917 180.202229 
L 268.530361 167.736506 
L 275.141528 148.21481 
L 279.548972 135.273923 
L 281.752694 129.478041 
L 282.854556 127.119028 
L 283.956417 125.516066 
L 285.058278 125.039911 
L 445.93 125.039911 
L 445.93 125.039911 
" clip-path="url(#p9673c9bfda)" style="fill: none; stroke: #c2185b; stroke-width: 2.6; stroke-linecap: square"/>
   </g>
   <g id="line2d_32">
    <path d="M 49.26 380.341864 
L 59.17675 378.671364 
L 69.0935 376.759846 
L 77.908389 374.830422 
L 86.723278 372.655537 
L 94.436306 370.526753 
L 102.149333 368.162908 
L 109.862361 365.538116 
L 116.473528 363.058919 
L 123.084694 360.347055 
L 129.695861 357.380775 
L 136.307028 354.136318 
L 141.816333 351.201452 
L 147.325639 348.039147 
L 152.834944 344.63189 
L 158.34425 340.960841 
L 163.853556 337.005744 
L 169.362861 332.74482 
L 174.872167 328.15467 
L 180.381472 323.210161 
L 184.788917 318.981354 
L 189.196361 314.493823 
L 193.603806 309.732021 
L 198.01125 304.679525 
L 202.418694 299.319007 
L 206.826139 293.632195 
L 211.233583 287.599858 
L 215.641028 281.201785 
L 220.048472 274.416787 
L 224.455917 267.222719 
L 228.863361 259.596533 
L 233.270806 251.51439 
L 237.67825 242.951846 
L 242.085694 233.884177 
L 246.493139 224.286926 
L 250.900583 214.136845 
L 255.308028 203.413565 
L 259.715472 192.102716 
L 264.122917 180.202229 
L 268.530361 167.736506 
L 275.141528 148.21481 
L 279.548972 135.273923 
L 280.650833 132.257953 
L 281.752694 129.819298 
L 282.854556 128.05674 
L 283.956417 126.870798 
L 285.058278 126.122954 
L 286.160139 125.675106 
L 288.363861 125.270715 
L 291.669444 125.120399 
L 302.688056 125.09157 
L 445.93 125.09157 
L 445.93 125.09157 
" clip-path="url(#p9673c9bfda)" style="fill: none; stroke: #e69f00; stroke-width: 2.6; stroke-linecap: square"/>
   </g>
   <g id="line2d_33">
    <path d="M 49.26 380.341864 
L 59.17675 378.671364 
L 69.0935 376.759846 
L 77.908389 374.830422 
L 86.723278 372.655537 
L 94.436306 370.526753 
L 102.149333 368.162908 
L 109.862361 365.538116 
L 116.473528 363.058919 
L 123.084694 360.347055 
L 129.695861 357.380775 
L 136.307028 354.136318 
L 141.816333 351.201452 
L 147.325639 348.039147 
L 152.834944 344.63189 
L 158.34425 340.960841 
L 163.853556 337.005744 
L 169.362861 332.74482 
L 174.872167 328.15467 
L 180.381472 323.210161 
L 184.788917 318.981354 
L 189.196361 314.493823 
L 193.603806 309.732021 
L 198.01125 304.679525 
L 202.418694 299.319007 
L 206.826139 293.632195 
L 211.233583 287.599858 
L 215.641028 281.201785 
L 220.048472 274.416787 
L 224.455917 267.222719 
L 228.863361 259.596533 
L 233.270806 251.51439 
L 237.67825 242.951846 
L 242.085694 233.884177 
L 246.493139 224.286926 
L 250.900583 214.136845 
L 255.308028 203.413565 
L 259.715472 192.102716 
L 264.122917 180.202229 
L 268.530361 167.736506 
L 275.141528 148.21481 
L 277.34525 142.01958 
L 278.447111 139.353229 
L 279.548972 136.98349 
L 280.650833 134.907871 
L 281.752694 133.11635 
L 282.854556 131.59213 
L 283.956417 130.313027 
L 285.058278 129.253254 
L 286.160139 128.385318 
L 287.262 127.681742 
L 289.465722 126.665639 
L 291.669444 126.026755 
L 293.873167 125.632628 
L 297.17875 125.310751 
L 301.586194 125.130402 
L 310.401083 125.042373 
L 355.577389 125.030764 
L 445.93 125.030764 
L 445.93 125.030764 
" clip-path="url(#p9673c9bfda)" style="fill: none; stroke: #7b3294; stroke-width: 2.6; stroke-linecap: square"/>
   </g>
   <g id="patch_3">
    <path d="M 49.26 391.912 
L 49.26 73.73325 
" style="fill: none; stroke: #000000; stroke-width: 0.8; stroke-linejoin: miter; stroke-linecap: square"/>
   </g>
   <g id="patch_4">
    <path d="M 445.93 391.912 
L 445.93 73.73325 
" style="fill: none; stroke: #000000; stroke-width: 0.8; stroke-linejoin: miter; stroke-linecap: square"/>
   </g>
   <g id="patch_5">
    <path d="M 49.26 391.912 
L 445.93 391.912 
" style="fill: none; stroke: #000000; stroke-width: 0.8; stroke-linejoin: miter; stroke-linecap: square"/>
   </g>
   <g id="patch_6">
    <path d="M 49.26 73.73325 
L 445.93 73.73325 
" style="fill: none; stroke: #000000; stroke-width: 0.8; stroke-linejoin: miter; stroke-linecap: square"/>
   </g>
   <g id="text_17">
    <text style="font-weight: 700; font-size: 14px; font-family: 'Arial', sans-serif; text-anchor: middle" x="247.595" y="61.73325" transform="rotate(-0 247.595 61.73325)">ForT Km sensitivity</text>
   </g>
   <g id="legend_1">
    <g id="patch_7">
     <path d="M 54.16 178.350437 
L 129.85625 178.350437 
Q 131.25625 178.350437 131.25625 176.950437 
L 131.25625 78.63325 
Q 131.25625 77.23325 129.85625 77.23325 
L 54.16 77.23325 
Q 52.76 77.23325 52.76 78.63325 
L 52.76 176.950437 
Q 52.76 178.350437 54.16 178.350437 
z
" style="fill: #ffffff; opacity: 0.8; stroke: #cccccc; stroke-linejoin: miter"/>
    </g>
    <g id="line2d_34">
     <path d="M 55.56 82.593719 
L 62.56 82.593719 
L 69.56 82.593719 
" style="fill: none; stroke: #3b7ea1; stroke-width: 2.6; stroke-linecap: square"/>
    </g>
    <g id="text_18">
     <text style="font-size: 7px; font-family: 'Arial', sans-serif; text-anchor: start" x="75.16" y="85.043719" transform="rotate(-0 75.16 85.043719)">Km 0.1x</text>
    </g>
    <g id="line2d_35">
     <path d="M 55.56 92.495437 
L 62.56 92.495437 
L 69.56 92.495437 
" style="fill: none; stroke: #5aa469; stroke-width: 2.6; stroke-linecap: square"/>
    </g>
    <g id="text_19">
     <text style="font-size: 7px; font-family: 'Arial', sans-serif; text-anchor: start" x="75.16" y="94.945437" transform="rotate(-0 75.16 94.945437)">Km 1x</text>
    </g>
    <g id="line2d_36">
     <path d="M 55.56 102.397156 
L 62.56 102.397156 
L 69.56 102.397156 
" style="fill: none; stroke: #c2185b; stroke-width: 2.6; stroke-linecap: square"/>
    </g>
    <g id="text_20">
     <text style="font-size: 7px; font-family: 'Arial', sans-serif; text-anchor: start" x="75.16" y="104.847156" transform="rotate(-0 75.16 104.847156)">Km 10x</text>
    </g>
    <g id="line2d_37">
     <path d="M 55.56 112.298875 
L 62.56 112.298875 
L 69.56 112.298875 
" style="fill: none; stroke: #e69f00; stroke-width: 2.6; stroke-linecap: square"/>
    </g>
    <g id="text_21">
     <text style="font-size: 7px; font-family: 'Arial', sans-serif; text-anchor: start" x="75.16" y="114.748875" transform="rotate(-0 75.16 114.748875)">Km 100x</text>
    </g>
    <g id="line2d_38">
     <path d="M 55.56 122.200594 
L 62.56 122.200594 
L 69.56 122.200594 
" style="fill: none; stroke: #7b3294; stroke-width: 2.6; stroke-linecap: square"/>
    </g>
    <g id="text_22">
     <text style="font-size: 7px; font-family: 'Arial', sans-serif; text-anchor: start" x="75.16" y="124.650594" transform="rotate(-0 75.16 124.650594)">Km 200x</text>
    </g>
    <g id="line2d_39">
     <path d="M 55.56 132.102312 
L 62.56 132.102312 
L 69.56 132.102312 
" style="fill: none; stroke-dasharray: 7.4,3.2; stroke-dashoffset: 0; stroke: #3b7ea1; stroke-opacity: 0.9; stroke-width: 2"/>
    </g>
    <g id="text_23">
     <text style="font-size: 7px; font-family: 'Arial', sans-serif; text-anchor: start" x="75.16" y="134.552312" transform="rotate(-0 75.16 134.552312)">Km 0.1x formate</text>
    </g>
    <g id="line2d_40">
     <path d="M 55.56 142.004031 
L 62.56 142.004031 
L 69.56 142.004031 
" style="fill: none; stroke-dasharray: 7.4,3.2; stroke-dashoffset: 0; stroke: #5aa469; stroke-opacity: 0.9; stroke-width: 2"/>
    </g>
    <g id="text_24">
     <text style="font-size: 7px; font-family: 'Arial', sans-serif; text-anchor: start" x="75.16" y="144.454031" transform="rotate(-0 75.16 144.454031)">Km 1x formate</text>
    </g>
    <g id="line2d_41">
     <path d="M 55.56 151.90575 
L 62.56 151.90575 
L 69.56 151.90575 
" style="fill: none; stroke-dasharray: 7.4,3.2; stroke-dashoffset: 0; stroke: #c2185b; stroke-opacity: 0.9; stroke-width: 2"/>
    </g>
    <g id="text_25">
     <text style="font-size: 7px; font-family: 'Arial', sans-serif; text-anchor: start" x="75.16" y="154.35575" transform="rotate(-0 75.16 154.35575)">Km 10x formate</text>
    </g>
    <g id="line2d_42">
     <path d="M 55.56 161.807469 
L 62.56 161.807469 
L 69.56 161.807469 
" style="fill: none; stroke-dasharray: 7.4,3.2; stroke-dashoffset: 0; stroke: #e69f00; stroke-opacity: 0.9; stroke-width: 2"/>
    </g>
    <g id="text_26">
     <text style="font-size: 7px; font-family: 'Arial', sans-serif; text-anchor: start" x="75.16" y="164.257469" transform="rotate(-0 75.16 164.257469)">Km 100x formate</text>
    </g>
    <g id="line2d_43">
     <path d="M 55.56 171.709187 
L 62.56 171.709187 
L 69.56 171.709187 
" style="fill: none; stroke-dasharray: 7.4,3.2; stroke-dashoffset: 0; stroke: #7b3294; stroke-opacity: 0.9; stroke-width: 2"/>
    </g>
    <g id="text_27">
     <text style="font-size: 7px; font-family: 'Arial', sans-serif; text-anchor: start" x="75.16" y="174.159187" transform="rotate(-0 75.16 174.159187)">Km 200x formate</text>
    </g>
   </g>
  </g>
  <g id="axes_2">
   <g id="patch_8">
    <path d="M 481.18 391.912 
L 877.85 391.912 
L 877.85 73.73325 
L 481.18 73.73325 
z
" style="fill: #ffffff"/>
   </g>
   <g id="matplotlib.axis_3">
    <g id="xtick_9">
     <g id="line2d_44">
      <path d="M 481.18 391.912 
L 481.18 73.73325 
" clip-path="url(#p6939c0d1e8)" style="fill: none; stroke-dasharray: 0.8,1.32; stroke-dashoffset: 0; stroke: #b0b0b0; stroke-opacity: 0.42; stroke-width: 0.8"/>
     </g>
     <g id="line2d_45">
      <g>
       <use xlink:href="#mfa02ecac4d" x="481.18" y="391.912" style="stroke: #000000; stroke-width: 0.8"/>
      </g>
     </g>
     <g id="text_28">
      <text style="font-size: 10px; font-family: 'Arial', sans-serif; text-anchor: middle" x="481.18" y="406.069812" transform="rotate(-0 481.18 406.069812)">0</text>
     </g>
    </g>
    <g id="xtick_10">
     <g id="line2d_46">
      <path d="M 534.069333 391.912 
L 534.069333 73.73325 
" clip-path="url(#p6939c0d1e8)" style="fill: none; stroke-dasharray: 0.8,1.32; stroke-dashoffset: 0; stroke: #b0b0b0; stroke-opacity: 0.42; stroke-width: 0.8"/>
     </g>
     <g id="line2d_47">
      <g>
       <use xlink:href="#mfa02ecac4d" x="534.069333" y="391.912" style="stroke: #000000; stroke-width: 0.8"/>
      </g>
     </g>
     <g id="text_29">
      <text style="font-size: 10px; font-family: 'Arial', sans-serif; text-anchor: middle" x="534.069333" y="406.069812" transform="rotate(-0 534.069333 406.069812)">2</text>
     </g>
    </g>
    <g id="xtick_11">
     <g id="line2d_48">
      <path d="M 586.958667 391.912 
L 586.958667 73.73325 
" clip-path="url(#p6939c0d1e8)" style="fill: none; stroke-dasharray: 0.8,1.32; stroke-dashoffset: 0; stroke: #b0b0b0; stroke-opacity: 0.42; stroke-width: 0.8"/>
     </g>
     <g id="line2d_49">
      <g>
       <use xlink:href="#mfa02ecac4d" x="586.958667" y="391.912" style="stroke: #000000; stroke-width: 0.8"/>
      </g>
     </g>
     <g id="text_30">
      <text style="font-size: 10px; font-family: 'Arial', sans-serif; text-anchor: middle" x="586.958667" y="406.069812" transform="rotate(-0 586.958667 406.069812)">4</text>
     </g>
    </g>
    <g id="xtick_12">
     <g id="line2d_50">
      <path d="M 639.848 391.912 
L 639.848 73.73325 
" clip-path="url(#p6939c0d1e8)" style="fill: none; stroke-dasharray: 0.8,1.32; stroke-dashoffset: 0; stroke: #b0b0b0; stroke-opacity: 0.42; stroke-width: 0.8"/>
     </g>
     <g id="line2d_51">
      <g>
       <use xlink:href="#mfa02ecac4d" x="639.848" y="391.912" style="stroke: #000000; stroke-width: 0.8"/>
      </g>
     </g>
     <g id="text_31">
      <text style="font-size: 10px; font-family: 'Arial', sans-serif; text-anchor: middle" x="639.848" y="406.069812" transform="rotate(-0 639.848 406.069812)">6</text>
     </g>
    </g>
    <g id="xtick_13">
     <g id="line2d_52">
      <path d="M 692.737333 391.912 
L 692.737333 73.73325 
" clip-path="url(#p6939c0d1e8)" style="fill: none; stroke-dasharray: 0.8,1.32; stroke-dashoffset: 0; stroke: #b0b0b0; stroke-opacity: 0.42; stroke-width: 0.8"/>
     </g>
     <g id="line2d_53">
      <g>
       <use xlink:href="#mfa02ecac4d" x="692.737333" y="391.912" style="stroke: #000000; stroke-width: 0.8"/>
      </g>
     </g>
     <g id="text_32">
      <text style="font-size: 10px; font-family: 'Arial', sans-serif; text-anchor: middle" x="692.737333" y="406.069812" transform="rotate(-0 692.737333 406.069812)">8</text>
     </g>
    </g>
    <g id="xtick_14">
     <g id="line2d_54">
      <path d="M 745.626667 391.912 
L 745.626667 73.73325 
" clip-path="url(#p6939c0d1e8)" style="fill: none; stroke-dasharray: 0.8,1.32; stroke-dashoffset: 0; stroke: #b0b0b0; stroke-opacity: 0.42; stroke-width: 0.8"/>
     </g>
     <g id="line2d_55">
      <g>
       <use xlink:href="#mfa02ecac4d" x="745.626667" y="391.912" style="stroke: #000000; stroke-width: 0.8"/>
      </g>
     </g>
     <g id="text_33">
      <text style="font-size: 10px; font-family: 'Arial', sans-serif; text-anchor: middle" x="745.626667" y="406.069812" transform="rotate(-0 745.626667 406.069812)">10</text>
     </g>
    </g>
    <g id="xtick_15">
     <g id="line2d_56">
      <path d="M 798.516 391.912 
L 798.516 73.73325 
" clip-path="url(#p6939c0d1e8)" style="fill: none; stroke-dasharray: 0.8,1.32; stroke-dashoffset: 0; stroke: #b0b0b0; stroke-opacity: 0.42; stroke-width: 0.8"/>
     </g>
     <g id="line2d_57">
      <g>
       <use xlink:href="#mfa02ecac4d" x="798.516" y="391.912" style="stroke: #000000; stroke-width: 0.8"/>
      </g>
     </g>
     <g id="text_34">
      <text style="font-size: 10px; font-family: 'Arial', sans-serif; text-anchor: middle" x="798.516" y="406.069812" transform="rotate(-0 798.516 406.069812)">12</text>
     </g>
    </g>
    <g id="xtick_16">
     <g id="line2d_58">
      <path d="M 851.405333 391.912 
L 851.405333 73.73325 
" clip-path="url(#p6939c0d1e8)" style="fill: none; stroke-dasharray: 0.8,1.32; stroke-dashoffset: 0; stroke: #b0b0b0; stroke-opacity: 0.42; stroke-width: 0.8"/>
     </g>
     <g id="line2d_59">
      <g>
       <use xlink:href="#mfa02ecac4d" x="851.405333" y="391.912" style="stroke: #000000; stroke-width: 0.8"/>
      </g>
     </g>
     <g id="text_35">
      <text style="font-size: 10px; font-family: 'Arial', sans-serif; text-anchor: middle" x="851.405333" y="406.069812" transform="rotate(-0 851.405333 406.069812)">14</text>
     </g>
    </g>
    <g id="text_36">
     <text style="font-weight: 700; font-size: 12px; font-family: 'Arial', sans-serif; text-anchor: middle" x="679.515" y="420.792937" transform="rotate(-0 679.515 420.792937)">Time (d)</text>
    </g>
   </g>
   <g id="matplotlib.axis_4">
    <g id="ytick_7">
     <g id="line2d_60">
      <path d="M 481.18 391.912 
L 877.85 391.912 
" clip-path="url(#p6939c0d1e8)" style="fill: none; stroke-dasharray: 0.8,1.32; stroke-dashoffset: 0; stroke: #b0b0b0; stroke-opacity: 0.42; stroke-width: 0.8"/>
     </g>
     <g id="line2d_61">
      <g>
       <use xlink:href="#m3ead25d9ed" x="481.18" y="391.912" style="stroke: #000000; stroke-width: 0.8"/>
      </g>
     </g>
     <g id="text_37">
      <text style="font-size: 10px; font-family: 'Arial', sans-serif; text-anchor: end" x="474.18" y="395.490906" transform="rotate(-0 474.18 395.490906)">0.0</text>
     </g>
    </g>
    <g id="ytick_8">
     <g id="line2d_62">
      <path d="M 481.18 334.061318 
L 877.85 334.061318 
" clip-path="url(#p6939c0d1e8)" style="fill: none; stroke-dasharray: 0.8,1.32; stroke-dashoffset: 0; stroke: #b0b0b0; stroke-opacity: 0.42; stroke-width: 0.8"/>
     </g>
     <g id="line2d_63">
      <g>
       <use xlink:href="#m3ead25d9ed" x="481.18" y="334.061318" style="stroke: #000000; stroke-width: 0.8"/>
      </g>
     </g>
     <g id="text_38">
      <text style="font-size: 10px; font-family: 'Arial', sans-serif; text-anchor: end" x="474.18" y="337.640224" transform="rotate(-0 474.18 337.640224)">0.1</text>
     </g>
    </g>
    <g id="ytick_9">
     <g id="line2d_64">
      <path d="M 481.18 276.210636 
L 877.85 276.210636 
" clip-path="url(#p6939c0d1e8)" style="fill: none; stroke-dasharray: 0.8,1.32; stroke-dashoffset: 0; stroke: #b0b0b0; stroke-opacity: 0.42; stroke-width: 0.8"/>
     </g>
     <g id="line2d_65">
      <g>
       <use xlink:href="#m3ead25d9ed" x="481.18" y="276.210636" style="stroke: #000000; stroke-width: 0.8"/>
      </g>
     </g>
     <g id="text_39">
      <text style="font-size: 10px; font-family: 'Arial', sans-serif; text-anchor: end" x="474.18" y="279.789543" transform="rotate(-0 474.18 279.789543)">0.2</text>
     </g>
    </g>
    <g id="ytick_10">
     <g id="line2d_66">
      <path d="M 481.18 218.359955 
L 877.85 218.359955 
" clip-path="url(#p6939c0d1e8)" style="fill: none; stroke-dasharray: 0.8,1.32; stroke-dashoffset: 0; stroke: #b0b0b0; stroke-opacity: 0.42; stroke-width: 0.8"/>
     </g>
     <g id="line2d_67">
      <g>
       <use xlink:href="#m3ead25d9ed" x="481.18" y="218.359955" style="stroke: #000000; stroke-width: 0.8"/>
      </g>
     </g>
     <g id="text_40">
      <text style="font-size: 10px; font-family: 'Arial', sans-serif; text-anchor: end" x="474.18" y="221.938861" transform="rotate(-0 474.18 221.938861)">0.3</text>
     </g>
    </g>
    <g id="ytick_11">
     <g id="line2d_68">
      <path d="M 481.18 160.509273 
L 877.85 160.509273 
" clip-path="url(#p6939c0d1e8)" style="fill: none; stroke-dasharray: 0.8,1.32; stroke-dashoffset: 0; stroke: #b0b0b0; stroke-opacity: 0.42; stroke-width: 0.8"/>
     </g>
     <g id="line2d_69">
      <g>
       <use xlink:href="#m3ead25d9ed" x="481.18" y="160.509273" style="stroke: #000000; stroke-width: 0.8"/>
      </g>
     </g>
     <g id="text_41">
      <text style="font-size: 10px; font-family: 'Arial', sans-serif; text-anchor: end" x="474.18" y="164.088179" transform="rotate(-0 474.18 164.088179)">0.4</text>
     </g>
    </g>
    <g id="ytick_12">
     <g id="line2d_70">
      <path d="M 481.18 102.658591 
L 877.85 102.658591 
" clip-path="url(#p6939c0d1e8)" style="fill: none; stroke-dasharray: 0.8,1.32; stroke-dashoffset: 0; stroke: #b0b0b0; stroke-opacity: 0.42; stroke-width: 0.8"/>
     </g>
     <g id="line2d_71">
      <g>
       <use xlink:href="#m3ead25d9ed" x="481.18" y="102.658591" style="stroke: #000000; stroke-width: 0.8"/>
      </g>
     </g>
     <g id="text_42">
      <text style="font-size: 10px; font-family: 'Arial', sans-serif; text-anchor: end" x="474.18" y="106.237497" transform="rotate(-0 474.18 106.237497)">0.5</text>
     </g>
    </g>
   </g>
   <g id="line2d_72">
    <path d="M 481.18 380.341864 
L 854.710917 378.664348 
L 877.85 378.55277 
L 877.85 378.55277 
" clip-path="url(#p6939c0d1e8)" style="fill: none; stroke: #3b7ea1; stroke-width: 2.6; stroke-linecap: square"/>
   </g>
   <g id="line2d_73">
    <path d="M 481.18 380.341864 
L 556.106556 378.660491 
L 626.625667 376.855447 
L 692.737333 374.940542 
L 754.441556 372.934186 
L 812.840194 370.817307 
L 869.035111 368.557706 
L 877.85 368.181929 
L 877.85 368.181929 
" clip-path="url(#p6939c0d1e8)" style="fill: none; stroke: #5aa469; stroke-width: 2.6; stroke-linecap: square"/>
   </g>
   <g id="line2d_74">
    <path d="M 481.18 380.341864 
L 518.643278 378.662281 
L 553.902833 376.859395 
L 586.958667 374.947014 
L 617.810778 372.943534 
L 647.561028 370.787853 
L 675.107556 368.574031 
L 701.552222 366.230806 
L 726.895028 363.764771 
L 751.135972 361.184702 
L 774.275056 358.50162 
L 796.312278 355.728817 
L 817.247639 352.881829 
L 838.183 349.810873 
L 858.0165 346.679007 
L 876.748139 343.507549 
L 877.85 343.314217 
L 877.85 343.314217 
" clip-path="url(#p6939c0d1e8)" style="fill: none; stroke: #c2185b; stroke-width: 2.6; stroke-linecap: square"/>
   </g>
   <g id="line2d_75">
    <path d="M 481.18 380.341864 
L 499.911639 378.665846 
L 517.541417 376.867256 
L 534.069333 374.9599 
L 549.495389 372.962141 
L 563.819583 370.896864 
L 578.143778 368.606519 
L 591.366111 366.271426 
L 604.588444 363.702395 
L 616.708917 361.12197 
L 628.829389 358.305538 
L 639.848 355.522225 
L 650.866611 352.508435 
L 660.783361 349.58323 
L 670.700111 346.440912 
L 680.616861 343.065373 
L 690.533611 339.439314 
L 699.3485 335.990848 
L 708.163389 332.31582 
L 716.978278 328.399357 
L 725.793167 324.225613 
L 734.608056 319.777704 
L 742.321083 315.64677 
L 750.034111 311.279387 
L 757.747139 306.662042 
L 765.460167 301.780454 
L 773.173194 296.619528 
L 780.886222 291.163316 
L 788.59925 285.394968 
L 795.210417 280.188765 
L 801.821583 274.72838 
L 808.43275 269.001452 
L 815.043917 262.995032 
L 821.655083 256.695557 
L 828.26625 250.088824 
L 834.877417 243.15997 
L 841.488583 235.893448 
L 848.09975 228.273009 
L 854.710917 220.281693 
L 861.322083 211.901834 
L 867.93325 203.115083 
L 874.544417 193.902482 
L 877.85 189.130433 
L 877.85 189.130433 
" clip-path="url(#p6939c0d1e8)" style="fill: none; stroke: #e69f00; stroke-width: 2.6; stroke-linecap: square"/>
   </g>
   <g id="line2d_76">
    <path d="M 481.18 380.341864 
L 491.09675 378.671364 
L 501.0135 376.759846 
L 509.828389 374.830422 
L 518.643278 372.655537 
L 526.356306 370.526753 
L 534.069333 368.162908 
L 541.782361 365.538116 
L 548.393528 363.058919 
L 555.004694 360.347055 
L 561.615861 357.380775 
L 568.227028 354.136318 
L 573.736333 351.201452 
L 579.245639 348.039147 
L 584.754944 344.63189 
L 590.26425 340.960841 
L 595.773556 337.005744 
L 601.282861 332.74482 
L 606.792167 328.15467 
L 612.301472 323.210161 
L 616.708917 318.981354 
L 621.116361 314.493823 
L 625.523806 309.732021 
L 629.93125 304.679525 
L 634.338694 299.319007 
L 638.746139 293.632195 
L 643.153583 287.599858 
L 647.561028 281.201785 
L 651.968472 274.416787 
L 656.375917 267.222719 
L 660.783361 259.596533 
L 665.190806 251.51439 
L 669.59825 242.951846 
L 674.005694 233.884177 
L 678.413139 224.286926 
L 682.820583 214.136845 
L 687.228028 203.413565 
L 691.635472 192.102716 
L 696.042917 180.202229 
L 700.450361 167.736506 
L 707.061528 148.21481 
L 711.468972 135.273923 
L 713.672694 129.478041 
L 714.774556 127.119028 
L 715.876417 125.516066 
L 716.978278 125.039911 
L 877.85 125.039911 
L 877.85 125.039911 
" clip-path="url(#p6939c0d1e8)" style="fill: none; stroke: #7b3294; stroke-width: 2.6; stroke-linecap: square"/>
   </g>
   <g id="line2d_77">
    <path d="M 481.18 380.341864 
L 491.09675 378.671364 
L 501.0135 376.759846 
L 509.828389 374.830422 
L 518.643278 372.655537 
L 526.356306 370.526753 
L 534.069333 368.162908 
L 541.782361 365.538116 
L 548.393528 363.058919 
L 555.004694 360.347055 
L 561.615861 357.380775 
L 568.227028 354.136318 
L 573.736333 351.201452 
L 579.245639 348.039147 
L 584.754944 344.63189 
L 590.26425 340.960841 
L 595.773556 337.005744 
L 601.282861 332.74482 
L 606.792167 328.15467 
L 612.301472 323.210161 
L 616.708917 318.981354 
L 621.116361 314.493823 
L 625.523806 309.732021 
L 629.93125 304.679525 
L 634.338694 299.319007 
L 638.746139 293.632195 
L 643.153583 287.599858 
L 647.561028 281.201785 
L 651.968472 274.416787 
L 656.375917 267.222719 
L 660.783361 259.596533 
L 665.190806 251.51439 
L 669.59825 242.951846 
L 674.005694 233.884177 
L 678.413139 224.286926 
L 682.820583 214.136845 
L 687.228028 203.413565 
L 691.635472 192.102716 
L 696.042917 180.202229 
L 700.450361 167.736506 
L 707.061528 148.21481 
L 711.468972 135.273923 
L 713.672694 129.478041 
L 714.774556 127.119028 
L 715.876417 125.516066 
L 716.978278 125.039911 
L 877.85 125.039911 
L 877.85 125.039911 
" clip-path="url(#p6939c0d1e8)" style="fill: none; stroke: #444444; stroke-width: 2.6; stroke-linecap: square"/>
   </g>
   <g id="patch_9">
    <path d="M 481.18 391.912 
L 481.18 73.73325 
" style="fill: none; stroke: #000000; stroke-width: 0.8; stroke-linejoin: miter; stroke-linecap: square"/>
   </g>
   <g id="patch_10">
    <path d="M 877.85 391.912 
L 877.85 73.73325 
" style="fill: none; stroke: #000000; stroke-width: 0.8; stroke-linejoin: miter; stroke-linecap: square"/>
   </g>
   <g id="patch_11">
    <path d="M 481.18 391.912 
L 877.85 391.912 
" style="fill: none; stroke: #000000; stroke-width: 0.8; stroke-linejoin: miter; stroke-linecap: square"/>
   </g>
   <g id="patch_12">
    <path d="M 481.18 73.73325 
L 877.85 73.73325 
" style="fill: none; stroke: #000000; stroke-width: 0.8; stroke-linejoin: miter; stroke-linecap: square"/>
   </g>
   <g id="text_43">
    <text style="font-weight: 700; font-size: 14px; font-family: 'Arial', sans-serif; text-anchor: middle" x="679.515" y="61.73325" transform="rotate(-0 679.515 61.73325)">ForT Vmax sensitivity</text>
   </g>
   <g id="legend_2">
    <g id="patch_13">
     <path d="M 486.08 198.153875 
L 571.113594 198.153875 
Q 572.513594 198.153875 572.513594 196.753875 
L 572.513594 78.63325 
Q 572.513594 77.23325 571.113594 77.23325 
L 486.08 77.23325 
Q 484.68 77.23325 484.68 78.63325 
L 484.68 196.753875 
Q 484.68 198.153875 486.08 198.153875 
z
" style="fill: #ffffff; opacity: 0.8; stroke: #cccccc; stroke-linejoin: miter"/>
    </g>
    <g id="line2d_78">
     <path d="M 487.48 82.593719 
L 494.48 82.593719 
L 501.48 82.593719 
" style="fill: none; stroke: #3b7ea1; stroke-width: 2.6; stroke-linecap: square"/>
    </g>
    <g id="text_44">
     <text style="font-size: 7px; font-family: 'Arial', sans-serif; text-anchor: start" x="507.08" y="85.043719" transform="rotate(-0 507.08 85.043719)">Vmax 0.01x</text>
    </g>
    <g id="line2d_79">
     <path d="M 487.48 92.495437 
L 494.48 92.495437 
L 501.48 92.495437 
" style="fill: none; stroke: #5aa469; stroke-width: 2.6; stroke-linecap: square"/>
    </g>
    <g id="text_45">
     <text style="font-size: 7px; font-family: 'Arial', sans-serif; text-anchor: start" x="507.08" y="94.945437" transform="rotate(-0 507.08 94.945437)">Vmax 0.05x</text>
    </g>
    <g id="line2d_80">
     <path d="M 487.48 102.397156 
L 494.48 102.397156 
L 501.48 102.397156 
" style="fill: none; stroke: #c2185b; stroke-width: 2.6; stroke-linecap: square"/>
    </g>
    <g id="text_46">
     <text style="font-size: 7px; font-family: 'Arial', sans-serif; text-anchor: start" x="507.08" y="104.847156" transform="rotate(-0 507.08 104.847156)">Vmax 0.1x</text>
    </g>
    <g id="line2d_81">
     <path d="M 487.48 112.298875 
L 494.48 112.298875 
L 501.48 112.298875 
" style="fill: none; stroke: #e69f00; stroke-width: 2.6; stroke-linecap: square"/>
    </g>
    <g id="text_47">
     <text style="font-size: 7px; font-family: 'Arial', sans-serif; text-anchor: start" x="507.08" y="114.748875" transform="rotate(-0 507.08 114.748875)">Vmax 0.2x</text>
    </g>
    <g id="line2d_82">
     <path d="M 487.48 122.200594 
L 494.48 122.200594 
L 501.48 122.200594 
" style="fill: none; stroke: #7b3294; stroke-width: 2.6; stroke-linecap: square"/>
    </g>
    <g id="text_48">
     <text style="font-size: 7px; font-family: 'Arial', sans-serif; text-anchor: start" x="507.08" y="124.650594" transform="rotate(-0 507.08 124.650594)">Vmax 0.5x</text>
    </g>
    <g id="line2d_83">
     <path d="M 487.48 132.102312 
L 494.48 132.102312 
L 501.48 132.102312 
" style="fill: none; stroke: #444444; stroke-width: 2.6; stroke-linecap: square"/>
    </g>
    <g id="text_49">
     <text style="font-size: 7px; font-family: 'Arial', sans-serif; text-anchor: start" x="507.08" y="134.552312" transform="rotate(-0 507.08 134.552312)">Vmax 1x</text>
    </g>
    <g id="line2d_84">
     <path d="M 487.48 142.004031 
L 494.48 142.004031 
L 501.48 142.004031 
" style="fill: none; stroke-dasharray: 7.4,3.2; stroke-dashoffset: 0; stroke: #3b7ea1; stroke-opacity: 0.9; stroke-width: 2"/>
    </g>
    <g id="text_50">
     <text style="font-size: 7px; font-family: 'Arial', sans-serif; text-anchor: start" x="507.08" y="144.454031" transform="rotate(-0 507.08 144.454031)">Vmax 0.01x formate</text>
    </g>
    <g id="line2d_85">
     <path d="M 487.48 151.90575 
L 494.48 151.90575 
L 501.48 151.90575 
" style="fill: none; stroke-dasharray: 7.4,3.2; stroke-dashoffset: 0; stroke: #5aa469; stroke-opacity: 0.9; stroke-width: 2"/>
    </g>
    <g id="text_51">
     <text style="font-size: 7px; font-family: 'Arial', sans-serif; text-anchor: start" x="507.08" y="154.35575" transform="rotate(-0 507.08 154.35575)">Vmax 0.05x formate</text>
    </g>
    <g id="line2d_86">
     <path d="M 487.48 161.807469 
L 494.48 161.807469 
L 501.48 161.807469 
" style="fill: none; stroke-dasharray: 7.4,3.2; stroke-dashoffset: 0; stroke: #c2185b; stroke-opacity: 0.9; stroke-width: 2"/>
    </g>
    <g id="text_52">
     <text style="font-size: 7px; font-family: 'Arial', sans-serif; text-anchor: start" x="507.08" y="164.257469" transform="rotate(-0 507.08 164.257469)">Vmax 0.1x formate</text>
    </g>
    <g id="line2d_87">
     <path d="M 487.48 171.709187 
L 494.48 171.709187 
L 501.48 171.709187 
" style="fill: none; stroke-dasharray: 7.4,3.2; stroke-dashoffset: 0; stroke: #e69f00; stroke-opacity: 0.9; stroke-width: 2"/>
    </g>
    <g id="text_53">
     <text style="font-size: 7px; font-family: 'Arial', sans-serif; text-anchor: start" x="507.08" y="174.159187" transform="rotate(-0 507.08 174.159187)">Vmax 0.2x formate</text>
    </g>
    <g id="line2d_88">
     <path d="M 487.48 181.610906 
L 494.48 181.610906 
L 501.48 181.610906 
" style="fill: none; stroke-dasharray: 7.4,3.2; stroke-dashoffset: 0; stroke: #7b3294; stroke-opacity: 0.9; stroke-width: 2"/>
    </g>
    <g id="text_54">
     <text style="font-size: 7px; font-family: 'Arial', sans-serif; text-anchor: start" x="507.08" y="184.060906" transform="rotate(-0 507.08 184.060906)">Vmax 0.5x formate</text>
    </g>
    <g id="line2d_89">
     <path d="M 487.48 191.512625 
L 494.48 191.512625 
L 501.48 191.512625 
" style="fill: none; stroke-dasharray: 7.4,3.2; stroke-dashoffset: 0; stroke: #444444; stroke-opacity: 0.9; stroke-width: 2"/>
    </g>
    <g id="text_55">
     <text style="font-size: 7px; font-family: 'Arial', sans-serif; text-anchor: start" x="507.08" y="193.962625" transform="rotate(-0 507.08 193.962625)">Vmax 1x formate</text>
    </g>
   </g>
  </g>
  <g id="axes_3">
   <g id="matplotlib.axis_5">
    <g id="ytick_13">
     <g id="line2d_90">
      <defs>
       <path id="m1de4089a0d" d="M 0 0 
L 3.5 0 
" style="stroke: #000000; stroke-width: 0.8"/>
      </defs>
      <g>
       <use xlink:href="#m1de4089a0d" x="445.93" y="384.713386" style="stroke: #000000; stroke-width: 0.8"/>
      </g>
     </g>
    </g>
    <g id="ytick_14">
     <g id="line2d_91">
      <g>
       <use xlink:href="#m1de4089a0d" x="445.93" y="348.720314" style="stroke: #000000; stroke-width: 0.8"/>
      </g>
     </g>
    </g>
    <g id="ytick_15">
     <g id="line2d_92">
      <g>
       <use xlink:href="#m1de4089a0d" x="445.93" y="312.727243" style="stroke: #000000; stroke-width: 0.8"/>
      </g>
     </g>
    </g>
    <g id="ytick_16">
     <g id="line2d_93">
      <g>
       <use xlink:href="#m1de4089a0d" x="445.93" y="276.734172" style="stroke: #000000; stroke-width: 0.8"/>
      </g>
     </g>
    </g>
    <g id="ytick_17">
     <g id="line2d_94">
      <g>
       <use xlink:href="#m1de4089a0d" x="445.93" y="240.741101" style="stroke: #000000; stroke-width: 0.8"/>
      </g>
     </g>
    </g>
    <g id="ytick_18">
     <g id="line2d_95">
      <g>
       <use xlink:href="#m1de4089a0d" x="445.93" y="204.748029" style="stroke: #000000; stroke-width: 0.8"/>
      </g>
     </g>
    </g>
    <g id="ytick_19">
     <g id="line2d_96">
      <g>
       <use xlink:href="#m1de4089a0d" x="445.93" y="168.754958" style="stroke: #000000; stroke-width: 0.8"/>
      </g>
     </g>
    </g>
    <g id="ytick_20">
     <g id="line2d_97">
      <g>
       <use xlink:href="#m1de4089a0d" x="445.93" y="132.761887" style="stroke: #000000; stroke-width: 0.8"/>
      </g>
     </g>
    </g>
    <g id="ytick_21">
     <g id="line2d_98">
      <g>
       <use xlink:href="#m1de4089a0d" x="445.93" y="96.768816" style="stroke: #000000; stroke-width: 0.8"/>
      </g>
     </g>
    </g>
   </g>
   <g id="line2d_99">
    <path d="M 49.26 96.768816 
L 59.17675 98.654473 
L 67.991639 100.557835 
L 76.806528 102.703397 
L 84.519556 104.803535 
L 92.232583 107.135636 
L 99.945611 109.725263 
L 106.556778 112.17133 
L 113.167944 114.847049 
L 119.779111 117.773911 
L 126.390278 120.975399 
L 131.899583 123.871532 
L 137.408889 126.992253 
L 142.918194 130.354888 
L 148.4275 133.978079 
L 153.936806 137.881885 
L 159.446111 142.087877 
L 164.955417 146.619253 
L 170.464722 151.500945 
L 174.872167 155.676462 
L 179.279611 160.107911 
L 183.687056 164.810763 
L 188.0945 169.801386 
L 192.501944 175.097081 
L 196.909389 180.716127 
L 201.316833 186.677816 
L 205.724278 193.002493 
L 210.131722 199.711578 
L 214.539167 206.82759 
L 218.946611 214.374153 
L 223.354056 222.37597 
L 227.7615 230.858777 
L 232.168944 239.849235 
L 236.576389 249.374736 
L 240.983833 259.463083 
L 245.391278 270.141937 
L 249.798722 281.43788 
L 254.206167 293.374769 
L 258.613611 305.970702 
L 263.021056 319.232033 
L 267.4285 333.140323 
L 272.937806 351.30744 
L 279.548972 373.302055 
L 281.752694 379.819641 
L 282.854556 382.466467 
L 283.956417 384.259767 
L 285.058278 384.713386 
L 445.93 384.713386 
L 445.93 384.713386 
" clip-path="url(#p9673c9bfda)" style="fill: none; stroke-dasharray: 7.4,3.2; stroke-dashoffset: 0; stroke: #3b7ea1; stroke-opacity: 0.9; stroke-width: 2"/>
   </g>
   <g id="line2d_100">
    <path d="M 49.26 96.768816 
L 59.17675 98.654473 
L 67.991639 100.557835 
L 76.806528 102.703397 
L 84.519556 104.803535 
L 92.232583 107.135636 
L 99.945611 109.725263 
L 106.556778 112.17133 
L 113.167944 114.847049 
L 119.779111 117.773911 
L 126.390278 120.975399 
L 131.899583 123.871532 
L 137.408889 126.992253 
L 142.918194 130.354888 
L 148.4275 133.978079 
L 153.936806 137.881885 
L 159.446111 142.087877 
L 164.955417 146.619253 
L 170.464722 151.500945 
L 174.872167 155.676462 
L 179.279611 160.107911 
L 183.687056 164.810763 
L 188.0945 169.801386 
L 192.501944 175.097081 
L 196.909389 180.716127 
L 201.316833 186.677816 
L 205.724278 193.002493 
L 210.131722 199.711578 
L 214.539167 206.82759 
L 218.946611 214.374153 
L 223.354056 222.37597 
L 227.7615 230.858777 
L 232.168944 239.849235 
L 236.576389 249.374736 
L 240.983833 259.463083 
L 245.391278 270.141937 
L 249.798722 281.43788 
L 254.206167 293.374769 
L 258.613611 305.970702 
L 263.021056 319.232033 
L 267.4285 333.140323 
L 272.937806 351.30744 
L 279.548972 373.302055 
L 281.752694 379.819641 
L 282.854556 382.466467 
L 283.956417 384.259767 
L 285.058278 384.713386 
L 445.93 384.713386 
L 445.93 384.713386 
" clip-path="url(#p9673c9bfda)" style="fill: none; stroke-dasharray: 7.4,3.2; stroke-dashoffset: 0; stroke: #5aa469; stroke-opacity: 0.9; stroke-width: 2"/>
   </g>
   <g id="line2d_101">
    <path d="M 49.26 96.768816 
L 59.17675 98.654473 
L 67.991639 100.557835 
L 76.806528 102.703397 
L 84.519556 104.803535 
L 92.232583 107.135636 
L 99.945611 109.725263 
L 106.556778 112.17133 
L 113.167944 114.847049 
L 119.779111 117.773911 
L 126.390278 120.975399 
L 131.899583 123.871532 
L 137.408889 126.992253 
L 142.918194 130.354888 
L 148.4275 133.978079 
L 153.936806 137.881885 
L 159.446111 142.087877 
L 164.955417 146.619253 
L 170.464722 151.500945 
L 174.872167 155.676462 
L 179.279611 160.107911 
L 183.687056 164.810763 
L 188.0945 169.801386 
L 192.501944 175.097081 
L 196.909389 180.716127 
L 201.316833 186.677816 
L 205.724278 193.002493 
L 210.131722 199.711578 
L 214.539167 206.82759 
L 218.946611 214.374153 
L 223.354056 222.37597 
L 227.7615 230.858777 
L 232.168944 239.849235 
L 236.576389 249.374736 
L 240.983833 259.463083 
L 245.391278 270.141937 
L 249.798722 281.43788 
L 254.206167 293.374769 
L 258.613611 305.970702 
L 263.021056 319.232033 
L 267.4285 333.140323 
L 272.937806 351.30744 
L 279.548972 373.302055 
L 281.752694 379.819641 
L 282.854556 382.466467 
L 283.956417 384.259767 
L 285.058278 384.713386 
L 445.93 384.713386 
L 445.93 384.713386 
" clip-path="url(#p9673c9bfda)" style="fill: none; stroke-dasharray: 7.4,3.2; stroke-dashoffset: 0; stroke: #c2185b; stroke-opacity: 0.9; stroke-width: 2"/>
   </g>
   <g id="line2d_102">
    <path d="M 49.26 96.768816 
L 59.17675 98.654473 
L 67.991639 100.557835 
L 76.806528 102.703397 
L 84.519556 104.803535 
L 92.232583 107.135636 
L 99.945611 109.725263 
L 106.556778 112.17133 
L 113.167944 114.847049 
L 119.779111 117.773911 
L 126.390278 120.975399 
L 131.899583 123.871532 
L 137.408889 126.992253 
L 142.918194 130.354888 
L 148.4275 133.978079 
L 153.936806 137.881885 
L 159.446111 142.087877 
L 164.955417 146.619253 
L 170.464722 151.500945 
L 174.872167 155.676462 
L 179.279611 160.107911 
L 183.687056 164.810763 
L 188.0945 169.801386 
L 192.501944 175.097081 
L 196.909389 180.716127 
L 201.316833 186.677816 
L 205.724278 193.002493 
L 210.131722 199.711578 
L 214.539167 206.82759 
L 218.946611 214.374153 
L 223.354056 222.37597 
L 227.7615 230.858777 
L 232.168944 239.849235 
L 236.576389 249.374736 
L 240.983833 259.463083 
L 245.391278 270.141937 
L 249.798722 281.43788 
L 254.206167 293.374769 
L 258.613611 305.970702 
L 263.021056 319.232033 
L 267.4285 333.140323 
L 272.937806 351.30744 
L 279.548972 373.302055 
L 280.650833 376.695256 
L 281.752694 379.432533 
L 282.854556 381.405695 
L 283.956417 382.730401 
L 285.058278 383.564359 
L 286.160139 384.063209 
L 287.262 384.351023 
L 289.465722 384.603443 
L 293.873167 384.70356 
L 322.521556 384.712514 
L 445.93 384.712514 
L 445.93 384.712514 
" clip-path="url(#p9673c9bfda)" style="fill: none; stroke-dasharray: 7.4,3.2; stroke-dashoffset: 0; stroke: #e69f00; stroke-opacity: 0.9; stroke-width: 2"/>
   </g>
   <g id="line2d_103">
    <path d="M 49.26 96.768816 
L 59.17675 98.654473 
L 67.991639 100.557835 
L 76.806528 102.703397 
L 84.519556 104.803535 
L 92.232583 107.135636 
L 99.945611 109.725263 
L 106.556778 112.17133 
L 113.167944 114.847049 
L 119.779111 117.773911 
L 126.390278 120.975399 
L 131.899583 123.871532 
L 137.408889 126.992253 
L 142.918194 130.354888 
L 148.4275 133.978079 
L 153.936806 137.881885 
L 159.446111 142.087877 
L 164.955417 146.619253 
L 170.464722 151.500945 
L 174.872167 155.676462 
L 179.279611 160.107911 
L 183.687056 164.810763 
L 188.0945 169.801386 
L 192.501944 175.097081 
L 196.909389 180.716127 
L 201.316833 186.677816 
L 205.724278 193.002493 
L 210.131722 199.711578 
L 214.539167 206.82759 
L 218.946611 214.374153 
L 223.354056 222.37597 
L 227.7615 230.858777 
L 232.168944 239.849235 
L 236.576389 249.374736 
L 240.983833 259.463083 
L 245.391278 270.141937 
L 249.798722 281.43788 
L 254.206167 293.374769 
L 258.613611 305.970702 
L 263.021056 319.232033 
L 267.4285 333.140323 
L 272.937806 351.30744 
L 276.243389 362.372013 
L 278.447111 368.69724 
L 279.548972 371.35714 
L 280.650833 373.68404 
L 281.752694 375.690116 
L 282.854556 377.395046 
L 283.956417 378.82441 
L 285.058278 380.007662 
L 286.160139 380.976005 
L 287.262 381.760477 
L 289.465722 382.892592 
L 291.669444 383.603904 
L 293.873167 384.042507 
L 297.17875 384.400588 
L 301.586194 384.601174 
L 310.401083 384.699068 
L 352.271806 384.711977 
L 445.93 384.711977 
L 445.93 384.711977 
" clip-path="url(#p9673c9bfda)" style="fill: none; stroke-dasharray: 7.4,3.2; stroke-dashoffset: 0; stroke: #7b3294; stroke-opacity: 0.9; stroke-width: 2"/>
   </g>
   <g id="patch_14">
    <path d="M 49.26 391.912 
L 49.26 73.73325 
" style="fill: none; stroke: #000000; stroke-width: 0.8; stroke-linejoin: miter; stroke-linecap: square"/>
   </g>
   <g id="patch_15">
    <path d="M 445.93 391.912 
L 445.93 73.73325 
" style="fill: none; stroke: #000000; stroke-width: 0.8; stroke-linejoin: miter; stroke-linecap: square"/>
   </g>
   <g id="patch_16">
    <path d="M 49.26 391.912 
L 445.93 391.912 
" style="fill: none; stroke: #000000; stroke-width: 0.8; stroke-linejoin: miter; stroke-linecap: square"/>
   </g>
   <g id="patch_17">
    <path d="M 49.26 73.73325 
L 445.93 73.73325 
" style="fill: none; stroke: #000000; stroke-width: 0.8; stroke-linejoin: miter; stroke-linecap: square"/>
   </g>
  </g>
  <g id="axes_4">
   <g id="matplotlib.axis_6">
    <g id="ytick_22">
     <g id="line2d_104">
      <g>
       <use xlink:href="#m1de4089a0d" x="877.85" y="384.713386" style="stroke: #000000; stroke-width: 0.8"/>
      </g>
     </g>
     <g id="text_56">
      <text style="font-size: 10px; font-family: 'Arial', sans-serif; text-anchor: start" x="884.85" y="388.292292" transform="rotate(-0 884.85 388.292292)">0.0</text>
     </g>
    </g>
    <g id="ytick_23">
     <g id="line2d_105">
      <g>
       <use xlink:href="#m1de4089a0d" x="877.85" y="348.720314" style="stroke: #000000; stroke-width: 0.8"/>
      </g>
     </g>
     <g id="text_57">
      <text style="font-size: 10px; font-family: 'Arial', sans-serif; text-anchor: start" x="884.85" y="352.299221" transform="rotate(-0 884.85 352.299221)">2.5</text>
     </g>
    </g>
    <g id="ytick_24">
     <g id="line2d_106">
      <g>
       <use xlink:href="#m1de4089a0d" x="877.85" y="312.727243" style="stroke: #000000; stroke-width: 0.8"/>
      </g>
     </g>
     <g id="text_58">
      <text style="font-size: 10px; font-family: 'Arial', sans-serif; text-anchor: start" x="884.85" y="316.306149" transform="rotate(-0 884.85 316.306149)">5.0</text>
     </g>
    </g>
    <g id="ytick_25">
     <g id="line2d_107">
      <g>
       <use xlink:href="#m1de4089a0d" x="877.85" y="276.734172" style="stroke: #000000; stroke-width: 0.8"/>
      </g>
     </g>
     <g id="text_59">
      <text style="font-size: 10px; font-family: 'Arial', sans-serif; text-anchor: start" x="884.85" y="280.313078" transform="rotate(-0 884.85 280.313078)">7.5</text>
     </g>
    </g>
    <g id="ytick_26">
     <g id="line2d_108">
      <g>
       <use xlink:href="#m1de4089a0d" x="877.85" y="240.741101" style="stroke: #000000; stroke-width: 0.8"/>
      </g>
     </g>
     <g id="text_60">
      <text style="font-size: 10px; font-family: 'Arial', sans-serif; text-anchor: start" x="884.85" y="244.320007" transform="rotate(-0 884.85 244.320007)">10.0</text>
     </g>
    </g>
    <g id="ytick_27">
     <g id="line2d_109">
      <g>
       <use xlink:href="#m1de4089a0d" x="877.85" y="204.748029" style="stroke: #000000; stroke-width: 0.8"/>
      </g>
     </g>
     <g id="text_61">
      <text style="font-size: 10px; font-family: 'Arial', sans-serif; text-anchor: start" x="884.85" y="208.326936" transform="rotate(-0 884.85 208.326936)">12.5</text>
     </g>
    </g>
    <g id="ytick_28">
     <g id="line2d_110">
      <g>
       <use xlink:href="#m1de4089a0d" x="877.85" y="168.754958" style="stroke: #000000; stroke-width: 0.8"/>
      </g>
     </g>
     <g id="text_62">
      <text style="font-size: 10px; font-family: 'Arial', sans-serif; text-anchor: start" x="884.85" y="172.333864" transform="rotate(-0 884.85 172.333864)">15.0</text>
     </g>
    </g>
    <g id="ytick_29">
     <g id="line2d_111">
      <g>
       <use xlink:href="#m1de4089a0d" x="877.85" y="132.761887" style="stroke: #000000; stroke-width: 0.8"/>
      </g>
     </g>
     <g id="text_63">
      <text style="font-size: 10px; font-family: 'Arial', sans-serif; text-anchor: start" x="884.85" y="136.340793" transform="rotate(-0 884.85 136.340793)">17.5</text>
     </g>
    </g>
    <g id="ytick_30">
     <g id="line2d_112">
      <g>
       <use xlink:href="#m1de4089a0d" x="877.85" y="96.768816" style="stroke: #000000; stroke-width: 0.8"/>
      </g>
     </g>
     <g id="text_64">
      <text style="font-size: 10px; font-family: 'Arial', sans-serif; text-anchor: start" x="884.85" y="100.347722" transform="rotate(-0 884.85 100.347722)">20.0</text>
     </g>
    </g>
    <g id="text_65">
     <text style="font-weight: 700; font-size: 12px; font-family: 'Arial', sans-serif; text-anchor: middle" x="917.046563" y="232.822625" transform="rotate(-90 917.046563 232.822625)">Formate remaining (mM)</text>
    </g>
   </g>
   <g id="line2d_113">
    <path d="M 481.18 96.768816 
L 835.979278 98.535253 
L 877.85 98.7591 
L 877.85 98.7591 
" clip-path="url(#p6939c0d1e8)" style="fill: none; stroke-dasharray: 7.4,3.2; stroke-dashoffset: 0; stroke: #3b7ea1; stroke-opacity: 0.9; stroke-width: 2"/>
   </g>
   <g id="line2d_114">
    <path d="M 481.18 96.768816 
L 551.699111 98.524874 
L 617.810778 100.387817 
L 680.616861 102.376607 
L 740.117361 104.481233 
L 796.312278 106.688321 
L 850.303472 109.031228 
L 877.85 110.317789 
L 877.85 110.317789 
" clip-path="url(#p6939c0d1e8)" style="fill: none; stroke-dasharray: 7.4,3.2; stroke-dashoffset: 0; stroke: #5aa469; stroke-opacity: 0.9; stroke-width: 2"/>
   </g>
   <g id="line2d_115">
    <path d="M 481.18 96.768816 
L 516.439556 98.526509 
L 549.495389 100.390956 
L 581.449361 102.418094 
L 611.199611 104.528145 
L 639.848 106.786362 
L 666.292667 109.089159 
L 691.635472 111.512653 
L 715.876417 114.048221 
L 739.0155 116.685031 
L 761.052722 119.410024 
L 783.089944 122.361142 
L 804.025306 125.391219 
L 823.858806 128.481408 
L 843.692306 131.801435 
L 862.423944 135.163438 
L 877.85 138.108389 
L 877.85 138.108389 
" clip-path="url(#p6939c0d1e8)" style="fill: none; stroke-dasharray: 7.4,3.2; stroke-dashoffset: 0; stroke: #c2185b; stroke-opacity: 0.9; stroke-width: 2"/>
   </g>
   <g id="line2d_116">
    <path d="M 481.18 96.768816 
L 498.809778 98.529771 
L 515.337694 100.39722 
L 530.76375 102.353184 
L 546.189806 104.539638 
L 560.514 106.79999 
L 573.736333 109.104508 
L 586.958667 111.639909 
L 599.079139 114.18656 
L 611.199611 116.966137 
L 622.218222 119.713038 
L 633.236833 122.68741 
L 644.255444 125.908084 
L 654.172194 129.034095 
L 664.088944 132.39213 
L 674.005694 135.999401 
L 682.820583 139.430015 
L 691.635472 143.086036 
L 700.450361 146.982263 
L 709.26525 151.134468 
L 718.080139 155.559454 
L 725.793167 159.669128 
L 733.506194 164.014066 
L 741.219222 168.607722 
L 748.93225 173.464313 
L 756.645278 178.598868 
L 764.358306 184.027268 
L 772.071333 189.766299 
L 778.6825 194.946123 
L 785.293667 200.378933 
L 791.904833 206.07705 
L 798.516 212.053388 
L 805.127167 218.321481 
L 811.738333 224.895508 
L 818.3495 231.790325 
L 824.960667 239.021487 
L 831.571833 246.60528 
L 838.183 254.558744 
L 844.794167 262.899695 
L 851.405333 271.64674 
L 858.0165 280.819284 
L 864.627667 290.437513 
L 871.238833 300.522343 
L 876.748139 309.298316 
L 877.85 311.095299 
L 877.85 311.095299 
" clip-path="url(#p6939c0d1e8)" style="fill: none; stroke-dasharray: 7.4,3.2; stroke-dashoffset: 0; stroke: #e69f00; stroke-opacity: 0.9; stroke-width: 2"/>
   </g>
   <g id="line2d_117">
    <path d="M 481.18 96.768816 
L 491.09675 98.654473 
L 499.911639 100.557835 
L 508.726528 102.703397 
L 516.439556 104.803535 
L 524.152583 107.135636 
L 531.865611 109.725263 
L 538.476778 112.17133 
L 545.087944 114.847049 
L 551.699111 117.773911 
L 558.310278 120.975399 
L 563.819583 123.871532 
L 569.328889 126.992253 
L 574.838194 130.354888 
L 580.3475 133.978079 
L 585.856806 137.881885 
L 591.366111 142.087877 
L 596.875417 146.619253 
L 602.384722 151.500945 
L 606.792167 155.676462 
L 611.199611 160.107911 
L 615.607056 164.810763 
L 620.0145 169.801386 
L 624.421944 175.097081 
L 628.829389 180.716127 
L 633.236833 186.677816 
L 637.644278 193.002493 
L 642.051722 199.711578 
L 646.459167 206.82759 
L 650.866611 214.374153 
L 655.274056 222.37597 
L 659.6815 230.858777 
L 664.088944 239.849235 
L 668.496389 249.374736 
L 672.903833 259.463083 
L 677.311278 270.141937 
L 681.718722 281.43788 
L 686.126167 293.374769 
L 690.533611 305.970702 
L 694.941056 319.232033 
L 699.3485 333.140323 
L 704.857806 351.30744 
L 711.468972 373.302055 
L 713.672694 379.819641 
L 714.774556 382.466467 
L 715.876417 384.259767 
L 716.978278 384.713386 
L 877.85 384.713386 
L 877.85 384.713386 
" clip-path="url(#p6939c0d1e8)" style="fill: none; stroke-dasharray: 7.4,3.2; stroke-dashoffset: 0; stroke: #7b3294; stroke-opacity: 0.9; stroke-width: 2"/>
   </g>
   <g id="line2d_118">
    <path d="M 481.18 96.768816 
L 491.09675 98.654473 
L 499.911639 100.557835 
L 508.726528 102.703397 
L 516.439556 104.803535 
L 524.152583 107.135636 
L 531.865611 109.725263 
L 538.476778 112.17133 
L 545.087944 114.847049 
L 551.699111 117.773911 
L 558.310278 120.975399 
L 563.819583 123.871532 
L 569.328889 126.992253 
L 574.838194 130.354888 
L 580.3475 133.978079 
L 585.856806 137.881885 
L 591.366111 142.087877 
L 596.875417 146.619253 
L 602.384722 151.500945 
L 606.792167 155.676462 
L 611.199611 160.107911 
L 615.607056 164.810763 
L 620.0145 169.801386 
L 624.421944 175.097081 
L 628.829389 180.716127 
L 633.236833 186.677816 
L 637.644278 193.002493 
L 642.051722 199.711578 
L 646.459167 206.82759 
L 650.866611 214.374153 
L 655.274056 222.37597 
L 659.6815 230.858777 
L 664.088944 239.849235 
L 668.496389 249.374736 
L 672.903833 259.463083 
L 677.311278 270.141937 
L 681.718722 281.43788 
L 686.126167 293.374769 
L 690.533611 305.970702 
L 694.941056 319.232033 
L 699.3485 333.140323 
L 704.857806 351.30744 
L 711.468972 373.302055 
L 713.672694 379.819641 
L 714.774556 382.466467 
L 715.876417 384.259767 
L 716.978278 384.713386 
L 877.85 384.713386 
L 877.85 384.713386 
" clip-path="url(#p6939c0d1e8)" style="fill: none; stroke-dasharray: 7.4,3.2; stroke-dashoffset: 0; stroke: #444444; stroke-opacity: 0.9; stroke-width: 2"/>
   </g>
   <g id="patch_18">
    <path d="M 481.18 391.912 
L 481.18 73.73325 
" style="fill: none; stroke: #000000; stroke-width: 0.8; stroke-linejoin: miter; stroke-linecap: square"/>
   </g>
   <g id="patch_19">
    <path d="M 877.85 391.912 
L 877.85 73.73325 
" style="fill: none; stroke: #000000; stroke-width: 0.8; stroke-linejoin: miter; stroke-linecap: square"/>
   </g>
   <g id="patch_20">
    <path d="M 481.18 391.912 
L 877.85 391.912 
" style="fill: none; stroke: #000000; stroke-width: 0.8; stroke-linejoin: miter; stroke-linecap: square"/>
   </g>
   <g id="patch_21">
    <path d="M 481.18 73.73325 
L 877.85 73.73325 
" style="fill: none; stroke: #000000; stroke-width: 0.8; stroke-linejoin: miter; stroke-linecap: square"/>
   </g>
  </g>
  <g id="text_66">
   <text style="font-weight: 700; font-size: 16px; font-family: 'Arial', sans-serif; text-anchor: middle" x="462.05875" y="18.7" transform="rotate(-0 462.05875 18.7)">20 mM dFBA response to ForT Km and Vmax</text>
  </g>
 </g>
 <defs>
  <clipPath id="p9673c9bfda">
   <rect x="49.26" y="73.73325" width="396.67" height="318.17875"/>
  </clipPath>
  <clipPath id="p6939c0d1e8">
   <rect x="481.18" y="73.73325" width="396.67" height="318.17875"/>
  </clipPath>
 </defs>
</svg>
